<?xml version="1.0" standalone="no"?>
<!DOCTYPE svg PUBLIC "-//W3C//DTD SVG 20010904//EN"
 "http://www.w3.org/TR/2001/REC-SVG-20010904/DTD/svg10.dtd">
<svg version="1.0" xmlns="http://www.w3.org/2000/svg"
 width="1240.000000pt" height="662.000000pt" viewBox="0 0 1240.000000 662.000000"
 preserveAspectRatio="xMidYMid meet">
<metadata>
Created by potrace 1.16, written by Peter Selinger 2001-2019
</metadata>
<g transform="translate(0.000000,662.000000) scale(0.100000,-0.100000)"
fill="#000000" stroke="none">
<path d="M0 3310 l0 -3310 6200 0 6200 0 0 3310 0 3310 -6200 0 -6200 0 0
-3310z m8038 2761 c92 -47 145 -134 145 -236 0 -280 -381 -365 -507 -113 -68
136 3 309 148 362 57 22 159 15 214 -13z m-6914 -60 c18 -20 43 -73 511 -1106
147 -324 274 -603 282 -619 17 -32 -29 -128 563 1179 122 270 229 506 238 525
l17 35 155 0 155 0 3 -1109 c1 -811 -1 -1112 -9 -1122 -9 -11 -47 -14 -163
-14 -83 0 -158 5 -166 10 -13 8 -16 97 -20 671 l-5 662 -247 -544 c-136 -299
-271 -598 -301 -664 l-54 -120 -146 -3 -147 -3 -18 31 c-10 16 -149 317 -308
668 l-289 638 -5 -657 c-4 -536 -8 -659 -19 -672 -11 -14 -36 -17 -158 -17
-80 0 -153 5 -164 10 -19 10 -19 33 -19 1119 0 609 3 1111 7 1114 3 4 70 7
148 7 127 0 144 -2 159 -19z m4814 -743 l2 -178 -182 0 c-188 0 -286 -13 -347
-44 -69 -36 -72 -66 -80 -701 l-6 -550 -164 -3 c-145 -2 -166 0 -183 15 -20
17 -20 31 -15 543 7 644 16 723 97 849 130 201 276 251 725 247 l150 -1 3
-177z m2150 170 c9 -9 12 -206 12 -825 0 -793 0 -813 -19 -823 -11 -5 -85 -10
-170 -10 -144 0 -151 1 -165 22 -14 20 -16 114 -16 820 0 711 2 798 16 812 13
13 43 16 173 16 109 0 161 -4 169 -12z m2984 -9 c201 -42 381 -220 418 -414 8
-43 10 -243 7 -700 -4 -674 -8 -736 -54 -868 -33 -91 -139 -192 -250 -236
-170 -67 -517 -79 -726 -25 -128 32 -233 101 -292 190 -43 64 -84 189 -88 262
l-2 56 100 13 c55 6 130 12 167 12 77 1 81 -3 93 -82 10 -65 42 -100 107 -120
74 -22 212 -29 350 -18 198 15 225 42 235 232 6 106 5 111 -13 106 -69 -21
-135 -27 -344 -27 -173 0 -252 4 -298 15 -176 42 -324 172 -391 344 -26 66
-26 67 -29 426 -3 311 -1 370 14 430 31 130 100 232 207 309 132 94 181 105
489 105 143 1 269 -4 300 -10z m-6743 -14 c149 -36 302 -159 365 -297 54 -117
58 -153 54 -563 l-3 -370 -27 -69 c-64 -167 -188 -283 -366 -343 -71 -24 -500
-30 -600 -9 -207 43 -374 201 -426 403 -23 88 -23 760 -1 847 50 191 204 346
395 397 89 24 511 27 609 4z m2595 -11 c235 -37 396 -134 461 -277 52 -114 58
-188 62 -757 2 -364 0 -533 -8 -552 -6 -14 -20 -29 -32 -32 -29 -8 -291 -8
-311 0 -14 5 -16 52 -17 423 0 553 -8 684 -40 747 -19 37 -36 54 -74 74 -47
24 -59 25 -242 28 -223 4 -261 -5 -307 -75 -47 -71 -49 -96 -53 -665 l-5 -538
-169 0 c-166 0 -169 0 -184 24 -13 20 -15 90 -12 567 4 594 7 636 65 759 50
106 177 206 316 247 145 44 375 55 550 27z m2411 -4 c102 -18 224 -61 283
-100 210 -137 237 -264 225 -1053 -5 -361 -9 -441 -21 -453 -11 -12 -47 -14
-180 -12 l-167 3 -5 555 c-5 542 -5 556 -27 602 -43 95 -133 122 -380 116
-168 -3 -210 -17 -250 -77 -45 -68 -46 -80 -50 -653 l-4 -547 -33 -6 c-18 -4
-95 -5 -170 -3 -116 2 -140 6 -150 20 -10 13 -14 130 -19 460 -7 449 -1 612
28 753 49 234 223 367 530 404 92 11 302 6 390 -9z m-6108 -1910 c98 -23 277
-63 398 -90 121 -27 339 -76 485 -109 479 -108 801 -180 1089 -245 212 -47
288 -68 298 -82 17 -23 18 -175 1 -192 -7 -7 -43 -12 -93 -12 -92 0 -105 7
-105 61 0 27 -5 39 -17 43 -10 2 -121 27 -248 55 -604 132 -1375 302 -1733
381 l-264 59 -221 -49 c-122 -27 -377 -83 -567 -125 -190 -42 -475 -105 -635
-140 -628 -139 -885 -195 -889 -195 -3 0 -6 -19 -8 -42 l-3 -43 -95 -3 c-116
-3 -120 0 -120 106 0 90 9 108 57 117 21 3 126 26 233 50 107 25 337 76 510
115 173 39 423 95 555 125 132 30 364 82 515 116 151 34 347 78 435 99 88 21
179 38 202 39 23 1 122 -17 220 -39z m-63 -239 c143 -33 392 -87 966 -211 206
-45 411 -89 455 -99 44 -10 203 -44 353 -77 l272 -59 0 -1070 c0 -820 -3
-1074 -12 -1083 -13 -13 -192 -17 -222 -6 -14 6 -16 104 -16 1015 l0 1009
-1947 -2 -1948 -3 -3 -1004 c-1 -722 -5 -1008 -13 -1018 -17 -20 -202 -18
-223 3 -15 14 -16 123 -14 1087 l3 1071 565 122 c311 66 750 160 975 208 495
105 532 113 674 145 2 1 62 -12 135 -28z m3782 -329 c103 -23 159 -45 257
-104 144 -87 186 -171 194 -390 l6 -136 -69 -8 c-38 -5 -123 -8 -189 -9 l-120
0 -5 97 c-5 90 -7 99 -34 127 -63 66 -210 86 -575 78 -421 -9 -426 -13 -419
-312 5 -200 9 -211 105 -251 l68 -28 325 -7 c346 -7 442 -18 590 -65 243 -78
343 -287 325 -674 -12 -248 -34 -328 -109 -404 -118 -117 -291 -168 -644 -188
-344 -20 -585 8 -783 91 -107 45 -134 64 -173 123 -48 72 -66 149 -73 304 -5
122 -5 132 14 151 11 11 40 23 64 27 48 7 260 -7 279 -19 7 -4 9 -21 5 -45 -4
-21 -2 -64 4 -96 20 -107 85 -148 258 -165 120 -12 359 -5 551 16 210 23 228
46 225 289 -1 94 -6 170 -13 186 -27 66 -128 84 -591 105 -222 9 -381 21 -425
30 -175 38 -307 174 -360 370 -33 127 -27 435 13 568 52 177 164 281 353 328
126 31 240 38 560 34 246 -3 310 -7 386 -23z m1342 -479 l2 -263 215 0 c136 0
216 -4 220 -10 13 -20 5 -384 -8 -392 -7 -4 -105 -8 -219 -8 l-208 0 -2 -557
-3 -558 -197 -3 -198 -2 0 560 0 560 -209 0 c-177 0 -212 2 -225 16 -13 13
-16 45 -16 193 0 136 3 181 13 190 9 7 89 12 223 13 l209 3 3 263 2 262 198
-2 197 -3 3 -262z m-6692 98 c82 -36 140 -117 151 -210 5 -43 3 -50 -18 -64
-33 -24 -62 -3 -71 53 -18 103 -79 150 -199 150 -86 0 -125 -19 -166 -79 -22
-33 -23 -41 -23 -281 0 -240 1 -248 23 -280 46 -68 111 -95 205 -84 112 13
162 83 162 226 l0 88 -101 0 c-111 0 -139 9 -139 45 0 48 21 55 158 55 181 0
175 6 170 -174 -3 -125 -6 -146 -27 -188 -46 -89 -118 -136 -228 -145 -134
-11 -239 44 -289 152 -23 48 -24 59 -24 308 0 253 0 259 24 305 39 76 107 128
185 142 62 12 157 3 207 -19z m629 5 c49 -21 110 -81 136 -134 23 -46 24 -55
27 -371 2 -178 1 -334 -2 -347 -8 -31 -40 -48 -66 -34 -18 10 -20 23 -22 158
l-3 147 -197 3 -198 2 0 -149 c0 -141 -1 -151 -20 -161 -28 -15 -59 -4 -66 24
-3 12 -4 173 -2 357 3 322 4 335 25 375 42 78 105 127 186 144 53 11 159 3
202 -14z m646 -3 c129 -58 185 -207 123 -331 -27 -55 -93 -119 -131 -128 -13
-4 -23 -11 -23 -16 0 -6 41 -88 90 -183 50 -95 90 -182 90 -193 0 -25 -33 -46
-58 -38 -10 3 -62 92 -122 206 l-105 200 -97 0 -98 0 0 -181 c0 -99 -4 -188
-10 -198 -13 -25 -37 -33 -61 -21 -18 10 -19 26 -19 449 l0 438 23 11 c15 8
76 11 187 9 140 -3 172 -7 211 -24z m639 -4 c60 -27 98 -64 126 -124 24 -50
24 -53 24 -397 0 -333 -1 -348 -19 -358 -24 -12 -48 -4 -61 21 -6 10 -10 79
-10 153 l0 136 -195 0 -195 0 0 -144 c0 -118 -3 -147 -16 -160 -8 -9 -22 -16
-29 -16 -7 0 -21 7 -29 16 -23 23 -24 659 -1 725 43 120 155 185 300 173 33
-3 80 -14 105 -25z m635 2 c79 -35 141 -120 152 -210 5 -42 3 -50 -18 -64 -34
-24 -60 -3 -74 59 -24 105 -78 144 -198 144 -84 0 -124 -19 -164 -78 -30 -45
-36 -109 -31 -329 4 -200 9 -224 60 -269 41 -38 71 -48 143 -48 83 0 130 23
167 82 18 30 23 55 26 134 l4 98 -101 0 c-113 0 -141 9 -141 45 0 48 21 55
158 55 176 0 172 4 172 -153 0 -67 -5 -139 -10 -159 -18 -63 -70 -129 -130
-162 -49 -28 -64 -31 -140 -31 -104 0 -150 15 -208 69 -83 76 -87 94 -87 386
l0 255 27 50 c42 80 108 131 187 145 62 11 157 3 206 -19z m683 13 c26 -18 28
-41 5 -66 -14 -16 -35 -18 -200 -18 l-183 0 0 -155 0 -155 128 0 c136 0 172
-10 172 -50 0 -43 -24 -50 -166 -50 l-135 0 3 -157 3 -158 184 -3 c115 -1 189
-7 198 -13 20 -17 16 -46 -9 -63 -33 -24 -429 -24 -452 0 -14 14 -16 68 -16
444 l0 429 22 15 c19 13 58 16 223 16 165 0 204 -3 223 -16z m6648 -239 c19
-25 20 -303 2 -327 -11 -14 -44 -17 -228 -20 -290 -5 -334 -22 -361 -143 -7
-32 -13 -243 -16 -598 l-5 -547 -23 -6 c-12 -3 -89 -4 -170 -2 -133 3 -148 5
-162 23 -13 17 -14 88 -10 535 6 656 17 743 111 874 117 163 228 209 546 226
236 12 299 9 316 -15z m-1612 -19 c184 -51 331 -212 365 -400 14 -76 15 -1184
1 -1206 -12 -20 -313 -28 -336 -9 -9 7 -14 30 -14 60 0 27 -2 49 -5 49 -2 0
-25 -20 -50 -44 -76 -75 -122 -86 -343 -86 -122 0 -210 5 -254 14 -197 42
-320 169 -379 391 -19 70 -22 115 -26 357 -6 310 4 429 42 545 69 206 208 317
425 343 124 14 505 5 574 -14z m-8343 -745 c90 -28 158 -99 199 -209 27 -72
38 -264 21 -372 -23 -148 -100 -257 -209 -295 -59 -20 -285 -32 -324 -16 l-28
11 0 439 c0 408 1 441 18 451 22 14 273 7 323 -9z m815 4 c65 -19 131 -76 160
-139 23 -49 24 -59 24 -307 0 -254 0 -255 -26 -307 -49 -98 -132 -145 -260
-146 -71 -1 -88 3 -139 29 -67 34 -119 94 -135 156 -7 26 -10 132 -8 292 l3
252 27 47 c70 117 210 166 354 123z m773 -1 c64 -19 131 -77 163 -142 22 -45
23 -56 23 -297 0 -242 -1 -252 -24 -302 -41 -91 -117 -145 -224 -158 -123 -15
-235 37 -291 135 l-31 55 -3 244 c-4 267 3 309 55 377 68 90 205 126 332 88z
m780 0 c106 -31 175 -124 175 -234 0 -98 -54 -183 -146 -231 l-37 -19 70 -133
c123 -232 125 -236 113 -255 -7 -10 -24 -17 -43 -17 -31 0 -34 4 -134 195
l-102 195 -87 9 c-47 5 -93 6 -101 3 -13 -5 -16 -36 -16 -199 -1 -163 -4 -195
-17 -205 -18 -13 -43 -7 -61 15 -10 12 -13 114 -13 432 0 360 2 419 16 438 15
21 21 22 173 22 113 0 172 -4 210 -16z m744 10 c65 -11 138 -63 174 -123 54
-91 54 -181 -1 -181 -31 0 -41 14 -56 77 -14 64 -64 119 -115 129 -69 13 -167
0 -202 -25 -42 -31 -67 -84 -67 -143 0 -80 37 -106 205 -143 136 -30 185 -51
226 -98 75 -86 67 -220 -20 -314 -59 -65 -112 -86 -217 -87 -69 0 -94 4 -132
23 -65 31 -125 101 -144 170 -21 72 -11 105 33 109 33 3 32 6 53 -75 12 -48
50 -97 91 -118 44 -23 166 -20 208 6 46 28 68 56 80 107 18 68 -2 118 -60 148
-15 7 -76 24 -137 38 -61 14 -128 32 -149 41 -105 44 -153 151 -119 267 42
146 177 220 349 192z"/>
<path d="M10547 5076 c-50 -18 -67 -34 -88 -81 -17 -36 -19 -72 -19 -369 0
-476 -15 -456 342 -456 227 0 236 1 268 23 19 12 43 38 54 57 20 33 21 52 23
330 0 162 -1 319 -4 348 -7 67 -36 111 -93 140 -42 21 -56 22 -245 22 -141 -1
-211 -5 -238 -14z"/>
<path d="M3760 5038 c-18 -13 -43 -41 -54 -63 -20 -38 -21 -55 -21 -380 0
-331 1 -341 23 -386 15 -30 35 -53 61 -67 37 -21 51 -22 263 -22 217 0 226 1
258 23 18 12 43 35 54 50 20 27 21 41 24 387 3 343 2 361 -17 399 -11 21 -36
48 -54 60 -32 20 -48 21 -269 21 -227 0 -236 -1 -268 -22z"/>
<path d="M1995 2453 c-42 -22 -74 -61 -85 -105 -6 -21 -9 -93 -8 -160 l3 -123
195 0 195 0 3 95 c6 176 -13 237 -87 287 -28 19 -47 23 -110 23 -50 -1 -86 -6
-106 -17z"/>
<path d="M2540 2316 l0 -154 113 -4 c61 -2 127 -1 146 3 104 23 161 138 111
227 -39 69 -76 82 -234 82 l-136 0 0 -154z"/>
<path d="M3265 2447 c-26 -14 -48 -37 -62 -67 -21 -39 -23 -59 -23 -182 l0
-138 196 0 195 0 -3 153 c-3 152 -3 154 -32 191 -37 49 -79 66 -163 66 -52 0
-78 -6 -108 -23z"/>
<path d="M9272 1889 c-61 -40 -62 -44 -62 -413 0 -184 4 -346 9 -359 5 -14 25
-35 43 -48 33 -24 36 -24 278 -24 358 0 334 -29 338 410 3 363 -1 394 -57 432
-33 22 -41 23 -275 23 -228 0 -243 -1 -274 -21z"/>
<path d="M1270 1110 l0 -360 93 0 c112 0 157 12 203 52 72 64 100 175 91 358
-6 130 -29 202 -79 252 -46 46 -88 58 -210 58 l-98 0 0 -360z"/>
<path d="M2124 1451 c-17 -10 -42 -34 -55 -53 -23 -32 -24 -39 -27 -268 -3
-267 3 -300 66 -348 33 -25 43 -27 126 -27 79 0 95 3 124 23 18 13 42 42 53
63 19 38 20 55 17 284 -3 271 -4 272 -78 323 -45 30 -178 32 -226 3z"/>
<path d="M2905 1455 c-90 -48 -97 -77 -93 -361 3 -227 3 -231 28 -267 41 -60
88 -80 180 -75 87 3 117 18 158 78 21 32 22 40 22 277 0 266 -1 272 -60 328
-29 28 -37 30 -118 33 -65 2 -94 -1 -117 -13z"/>
<path d="M3580 1315 l0 -155 138 0 c164 0 201 14 240 90 39 75 18 146 -58 198
-30 20 -44 22 -176 22 l-144 0 0 -155z"/>
</g>
</svg>
